<svg width="199" height="200" viewBox="0 0 199 200" fill="none" xmlns="http://www.w3.org/2000/svg">
<mask id="path-1-inside-1_442_8088" fill="white">
<path d="M59.3203 10.5162C57.5476 8.89753 55.7439 7.39384 53.794 5.99227C47.0561 1.72225 38.2281 -1.76116 30.1816 0.965706C25.9404 2.87938 22.6331 6.36033 20.8559 10.6733C18.929 16.9612 20.17 24.0607 23.0087 29.9019L23.6505 31.1251C25.7992 35.3101 28.0548 38.9426 31.3433 42.3583L32.6935 43.6915C35.6353 46.6308 38.5777 49.248 42.1134 51.4513C47.6599 54.8869 53.1341 58.5576 57.348 63.5995L58.3155 64.8031C60.6342 67.4674 62.6811 70.2674 64.6164 73.2198L65.4118 74.4479C68.0203 78.3882 69.7207 82.5184 71.3777 86.92C69.2569 86.8992 67.1362 86.8819 65.0154 86.8709C64.1427 86.8668 63.2701 86.8622 62.3974 86.8572C53.6343 86.7686 46.6791 87.411 38.942 92.0094C31.7316 96.8189 26.2711 104.122 24.288 112.622L23.9605 114.334C23.8308 115.006 23.7013 115.677 23.572 116.349C23.3552 117.494 23.1381 118.639 22.9177 119.784C21.5553 126.839 20.2386 133.902 18.9453 140.969L18.6266 142.715C17.9727 146.294 17.3248 149.874 16.6948 153.457C16.4914 154.62 16.2876 155.783 16.0832 156.946C14.751 164.311 13.6481 171.403 14.105 178.906C14.9981 185.235 18.1648 190.5 22.9911 194.677C27.7366 198.205 32.8394 199.767 38.7222 199.012C46.5939 197.371 51.505 193.579 55.8643 186.981L56.5571 185.912C57.9803 183.753 59.3917 181.586 60.7919 179.412L61.7989 177.846C62.4697 176.807 63.1402 175.767 63.8104 174.728L64.7642 173.229L65.6767 171.812C66.9588 169.898 66.9588 169.898 68.3242 168.042C69.344 166.656 70.8369 166.541 73.8065 166.524L75.3972 166.549C77.1691 166.545 78.9402 166.546 80.7121 166.561C81.979 166.573 83.2459 166.581 84.5129 166.584C87.4915 166.588 90.47 166.596 93.4486 166.617C97.2286 166.646 101.008 166.663 104.789 166.671C107.427 166.677 110.065 166.686 112.703 166.697L114.605 166.705C116.447 166.712 118.289 166.721 120.131 166.733L121.812 166.745L123.411 166.752L124.865 166.765C125.625 166.77 126.385 166.791 127.143 166.842C127.901 166.894 128.237 167.294 128.94 168.428L129.891 169.884C130.449 170.736 131.008 171.588 131.562 172.443L132.167 173.377L133.419 175.308C134.304 176.674 135.189 178.039 136.074 179.404C136.531 180.107 136.987 180.81 137.442 181.514L137.562 181.699C141.974 188.566 146.029 194.876 153.833 198.196C158.214 199.667 163.468 199.786 167.788 198.017L168.842 197.505C171.3 196.354 173.312 194.992 175.324 193.163C180.11 188.379 182.997 182.284 183.071 175.43L183.066 174.414C183.113 170.745 182.511 167.261 181.844 163.667C181.624 162.495 181.403 161.323 181.188 160.151L181.114 159.746C180.844 158.274 180.575 156.801 180.305 155.329L179.828 152.737L179.58 151.386C178.507 145.547 177.458 139.705 176.487 133.848L176.185 132.024C175.691 129.049 175.195 126.074 174.715 123.096C174.535 121.975 174.352 120.854 174.167 119.733L173.905 118.146C173.128 113.18 171.855 108.494 169.323 104.115L168.779 103.225C167.338 100.858 165.814 98.7551 163.881 96.7533C157.253 90.6028 149.843 86.8046 140.691 86.8061L139.23 86.8218C137.657 86.8263 136.085 86.8319 134.512 86.8442C133.422 86.8529 132.332 86.8598 131.242 86.8648C128.316 86.8758 125.39 86.8909 122.464 86.9133L121.617 86.92C123.391 77.5529 127.282 67.7838 134.428 61.2845C134.428 61.2845 134.507 61.4949 134.679 61.7872C138.3 67.9335 144.193 74.1586 150.395 77.6896L151.76 78.3749C154.57 79.8139 157.269 80.8485 160.429 81.1297C165.198 81.3699 169.067 80.778 172.774 77.5836C175.559 74.6828 176.548 70.9175 176.664 66.9727L176.66 65.8084C176.641 59.3272 174.368 54.2473 170.851 47.7128L169.595 45.7022C168.339 43.6915 165.233 40.5061 162.719 38.3508C155.531 32.377 148.495 29.6171 139.201 30.6225C133.181 31.7502 127.125 35.8645 123.365 40.6854L122.622 41.6809C115.576 50.43 111.24 60.486 108.335 71.2898L108.052 72.343C107.761 73.3887 107.47 74.4341 107.189 75.4825L106.922 76.4899C106.579 77.7763 106.294 79.8828 106.043 81.6421C105.79 83.4152 105.706 84.7636 105.54 86.92H91.9758C91.9758 77.9471 89.2707 68.3529 86.7507 59.7763L86.4495 58.7712C81.4841 42.1776 73.1912 23.6243 60.3761 11.4665L59.3203 10.5162Z"/>
</mask>
<path d="M59.3203 10.5162C57.5476 8.89753 55.7439 7.39384 53.794 5.99227C47.0561 1.72225 38.2281 -1.76116 30.1816 0.965706C25.9404 2.87938 22.6331 6.36033 20.8559 10.6733C18.929 16.9612 20.17 24.0607 23.0087 29.9019L23.6505 31.1251C25.7992 35.3101 28.0548 38.9426 31.3433 42.3583L32.6935 43.6915C35.6353 46.6308 38.5777 49.248 42.1134 51.4513C47.6599 54.8869 53.1341 58.5576 57.348 63.5995L58.3155 64.8031C60.6342 67.4674 62.6811 70.2674 64.6164 73.2198L65.4118 74.4479C68.0203 78.3882 69.7207 82.5184 71.3777 86.92C69.2569 86.8992 67.1362 86.8819 65.0154 86.8709C64.1427 86.8668 63.2701 86.8622 62.3974 86.8572C53.6343 86.7686 46.6791 87.411 38.942 92.0094C31.7316 96.8189 26.2711 104.122 24.288 112.622L23.9605 114.334C23.8308 115.006 23.7013 115.677 23.572 116.349C23.3552 117.494 23.1381 118.639 22.9177 119.784C21.5553 126.839 20.2386 133.902 18.9453 140.969L18.6266 142.715C17.9727 146.294 17.3248 149.874 16.6948 153.457C16.4914 154.62 16.2876 155.783 16.0832 156.946C14.751 164.311 13.6481 171.403 14.105 178.906C14.9981 185.235 18.1648 190.5 22.9911 194.677C27.7366 198.205 32.8394 199.767 38.7222 199.012C46.5939 197.371 51.505 193.579 55.8643 186.981L56.5571 185.912C57.9803 183.753 59.3917 181.586 60.7919 179.412L61.7989 177.846C62.4697 176.807 63.1402 175.767 63.8104 174.728L64.7642 173.229L65.6767 171.812C66.9588 169.898 66.9588 169.898 68.3242 168.042C69.344 166.656 70.8369 166.541 73.8065 166.524L75.3972 166.549C77.1691 166.545 78.9402 166.546 80.7121 166.561C81.979 166.573 83.2459 166.581 84.5129 166.584C87.4915 166.588 90.47 166.596 93.4486 166.617C97.2286 166.646 101.008 166.663 104.789 166.671C107.427 166.677 110.065 166.686 112.703 166.697L114.605 166.705C116.447 166.712 118.289 166.721 120.131 166.733L121.812 166.745L123.411 166.752L124.865 166.765C125.625 166.77 126.385 166.791 127.143 166.842C127.901 166.894 128.237 167.294 128.94 168.428L129.891 169.884C130.449 170.736 131.008 171.588 131.562 172.443L132.167 173.377L133.419 175.308C134.304 176.674 135.189 178.039 136.074 179.404C136.531 180.107 136.987 180.81 137.442 181.514L137.562 181.699C141.974 188.566 146.029 194.876 153.833 198.196C158.214 199.667 163.468 199.786 167.788 198.017L168.842 197.505C171.3 196.354 173.312 194.992 175.324 193.163C180.11 188.379 182.997 182.284 183.071 175.43L183.066 174.414C183.113 170.745 182.511 167.261 181.844 163.667C181.624 162.495 181.403 161.323 181.188 160.151L181.114 159.746C180.844 158.274 180.575 156.801 180.305 155.329L179.828 152.737L179.58 151.386C178.507 145.547 177.458 139.705 176.487 133.848L176.185 132.024C175.691 129.049 175.195 126.074 174.715 123.096C174.535 121.975 174.352 120.854 174.167 119.733L173.905 118.146C173.128 113.18 171.855 108.494 169.323 104.115L168.779 103.225C167.338 100.858 165.814 98.7551 163.881 96.7533C157.253 90.6028 149.843 86.8046 140.691 86.8061L139.23 86.8218C137.657 86.8263 136.085 86.8319 134.512 86.8442C133.422 86.8529 132.332 86.8598 131.242 86.8648C128.316 86.8758 125.39 86.8909 122.464 86.9133L121.617 86.92C123.391 77.5529 127.282 67.7838 134.428 61.2845C134.428 61.2845 134.507 61.4949 134.679 61.7872C138.3 67.9335 144.193 74.1586 150.395 77.6896L151.76 78.3749C154.57 79.8139 157.269 80.8485 160.429 81.1297C165.198 81.3699 169.067 80.778 172.774 77.5836C175.559 74.6828 176.548 70.9175 176.664 66.9727L176.66 65.8084C176.641 59.3272 174.368 54.2473 170.851 47.7128L169.595 45.7022C168.339 43.6915 165.233 40.5061 162.719 38.3508C155.531 32.377 148.495 29.6171 139.201 30.6225C133.181 31.7502 127.125 35.8645 123.365 40.6854L122.622 41.6809C115.576 50.43 111.24 60.486 108.335 71.2898L108.052 72.343C107.761 73.3887 107.47 74.4341 107.189 75.4825L106.922 76.4899C106.579 77.7763 106.294 79.8828 106.043 81.6421C105.79 83.4152 105.706 84.7636 105.54 86.92H91.9758C91.9758 77.9471 89.2707 68.3529 86.7507 59.7763L86.4495 58.7712C81.4841 42.1776 73.1912 23.6243 60.3761 11.4665L59.3203 10.5162Z" fill="black" stroke="black" stroke-width="1.0042" mask="url(#path-1-inside-1_442_8088)"/>
<path d="M107.09 92.3609C100.355 92.378 93.6209 92.4034 86.8863 92.4406C83.4492 92.4594 80.0122 92.475 76.575 92.4824C73.2831 92.4896 69.9914 92.5073 66.6996 92.5315C65.4708 92.5389 64.242 92.543 63.0132 92.5434C61.3102 92.5446 59.6077 92.5582 57.9049 92.5747C57.1664 92.5709 57.1664 92.5709 56.4129 92.567C49.3974 92.6719 43.5442 96.0269 38.5512 100.788C30.7061 109.055 29.065 120.622 29.0113 131.605C29.0086 132.084 29.0058 132.564 29.0029 133.059C29.075 140.054 31.5202 146.381 36.1976 151.594C36.5083 151.946 36.819 152.297 37.1391 152.659C39.2307 154.89 41.4117 156.475 44.0822 157.959C45.2214 158.616 46.7413 159.516 47.2438 160.13C47.892 160.923 47.892 161.676 47.4949 162.641C46.9928 163.645 46.2396 163.864 44.953 163.864C41.7207 163.896 35.1569 158.88 31.918 155.16C30.1966 152.935 28.7143 150.671 27.4385 148.235C26.8672 147.145 25.3583 147.11 25.0272 148.296C24.7798 149.182 24.6096 150.096 24.4297 151.077C24.3666 151.416 24.3036 151.756 24.2386 152.105C24.0379 153.19 23.8415 154.275 23.6452 155.36C23.5134 156.074 23.3813 156.788 23.249 157.502C22.8711 159.548 22.5038 161.596 22.1389 163.645C22.0362 164.213 21.9335 164.781 21.8277 165.366C20.6169 172.276 20.2555 179.214 23.8825 185.516C26.3997 189.044 30.3372 192.452 34.6913 193.269C39.1799 193.692 43.2543 192.952 46.9928 190.35C51.2044 186.811 53.9886 181.685 56.9406 177.107C57.1666 176.757 57.3926 176.407 57.6255 176.046C57.8564 175.688 58.0874 175.33 58.3253 174.962C58.5624 174.595 58.7994 174.228 59.0437 173.85C59.5683 173.036 60.0908 172.221 60.6117 171.405C61.4498 170.099 62.3006 168.801 63.1541 167.505C63.5384 166.897 63.5384 166.897 63.9304 166.278C64.1836 165.897 64.4368 165.517 64.6977 165.126C64.9149 164.791 65.0684 164.472 65.3561 164.111C67.3278 161.636 70.9049 160.904 74.5292 160.868C75.0586 160.873 75.5879 160.877 76.1333 160.882C76.7012 160.88 77.2692 160.877 77.8543 160.874C79.7229 160.868 81.5911 160.876 83.4597 160.885C84.7627 160.885 86.0656 160.884 87.3685 160.883C90.0955 160.882 92.8223 160.888 95.5492 160.9C98.6952 160.913 101.841 160.914 104.987 160.908C108.023 160.903 111.059 160.906 114.094 160.913C115.382 160.915 116.67 160.916 117.958 160.914C119.758 160.912 121.558 160.92 123.358 160.931C123.889 160.929 124.419 160.927 124.965 160.925C128.282 160.958 131.675 161.174 133.546 163.414C136.282 166.688 138.558 170.257 140.854 173.844C146.96 184.683 153.155 190.975 155.54 191.955C155.645 191.998 155.755 192.019 155.868 192.03C161.081 192.533 166.178 193.332 170.258 190.758C170.57 190.582 170.882 190.406 171.204 190.225C175.052 187.826 177.126 183.785 178.375 179.535C178.398 179.455 178.415 179.374 178.424 179.292C179.283 171.857 178.09 165.289 176.817 158.53C176.627 157.493 176.438 156.455 176.249 155.418C175.904 153.531 175.557 151.645 175.203 149.76C175.133 149.386 175.062 149.012 174.99 148.626C174.791 147.648 174.561 146.682 174.313 145.716C174.291 145.63 174.223 145.582 174.161 145.518V145.518C174.013 145.365 173.681 145.226 173.584 145.415C173.289 145.99 172.928 146.709 172.769 147.076C169.277 154.059 163.645 160.545 155.851 164.078C155.749 164.124 155.642 164.159 155.531 164.178C154.447 164.366 153.951 164.146 153.282 163.708C153.218 163.666 153.158 163.619 153.103 163.567C151.632 162.165 151.926 160.701 152.622 159.715C152.663 159.656 152.71 159.602 152.761 159.552C153.697 158.628 153.867 158.704 155.384 157.965C162.632 154.072 167.115 148.285 169.756 140.548C172.559 131.049 171.186 118.049 166.92 109.151C166.696 108.742 166.472 108.333 166.241 107.912C165.997 107.461 165.752 107.011 165.5 106.547C162.055 100.539 157.516 96.6938 151.178 93.8529C150.754 93.6562 150.329 93.4594 149.892 93.2567C146.612 92.1635 143.206 92.2733 139.789 92.28C139.233 92.2792 138.677 92.2785 138.104 92.2777C136.197 92.2765 134.289 92.2797 132.381 92.2839C131.706 92.285 131.03 92.2862 130.355 92.2873C125.935 92.2952 121.516 92.3112 117.097 92.3294C113.761 92.3427 110.426 92.3525 107.09 92.3609Z" fill="white"/>
<path d="M43.6559 7.56384C44.3233 7.87045 44.9814 8.19762 45.633 8.53666C46.1274 8.77549 46.6219 9.01432 47.1314 9.26039C52.7006 12.0777 57.3299 15.6863 61.198 20.5871C61.5359 21.0013 61.8738 21.4155 62.2219 21.8423C70.5641 32.4543 76.609 45.4674 80.7799 58.2445C80.8941 58.5931 81.0082 58.9418 81.1259 59.3009C83.9249 68.0016 86.8051 77.6968 86.8051 86.8642C84.3197 86.8642 81.8343 86.8642 79.2736 86.8642C78.8801 85.7354 78.4866 84.6066 78.0811 83.4437C72.3772 67.9079 62.7322 57.1473 49.3889 47.7479C39.5683 40.8272 30.493 32.4198 28.0595 20.085C27.622 16.3524 27.5574 13.0556 30.0679 10.043C33.5826 6.52826 38.821 5.88661 43.6559 7.56384Z" fill="#7DCEEC"/>
<path d="M158.605 41.6754C165.348 47.3606 171.382 55.7665 172.162 64.772C172.158 67.7151 171.861 70.3333 170.153 72.8056C168.323 74.5449 166.897 74.9479 164.442 75.0023C156.942 74.6692 151.615 70.8698 146.608 65.5369C142.677 61.1741 138.772 54.73 138.772 54.73L135.105 46.8706C134.669 45.9367 133.277 46.1868 133.194 47.2141L132.747 52.7216C132.747 52.7216 131.994 53.5062 130.739 55.2321C129.483 56.9581 129.734 56.4874 127.977 59.5C123.188 67.7096 118.908 77.1689 116.429 86.8644C115.269 86.8644 114.109 86.8644 112.914 86.8644C115.298 70.0883 120.502 51.5152 134.002 40.1691C142.15 34.669 150.998 35.8324 158.605 41.6754Z" fill="#FC7738"/>
<path d="M97.0197 143.403C97.4385 143.401 97.8573 143.399 98.2887 143.397C98.9421 143.406 98.9421 143.406 99.6087 143.414C100.044 143.409 100.48 143.403 100.929 143.397C101.557 143.4 101.557 143.4 102.198 143.403C102.771 143.405 102.771 143.405 103.356 143.408C105.21 143.416 105.634 144.105 105.885 144.858C106.136 146.364 106.136 146.866 105.885 148.373C105.634 149.377 105.331 149.769 103.356 149.785C102.892 149.783 100.369 149.787 99.8911 149.785C99.1984 149.797 99.1984 149.797 98.4917 149.809C97.8262 149.81 97.8262 149.81 97.1472 149.81C96.7408 149.812 96.2617 149.783 95.8429 149.785C94.5041 149.552 94.0856 149.126 93.8345 148.373C93.5835 147.117 93.5835 146.113 93.8346 144.858C94.3366 143.352 95.6513 143.409 97.0197 143.403Z" fill="#060505"/>
<path d="M25.8002 143.599C26.3023 146.361 27.5575 148.202 28.5617 149.875C29.3149 151.131 29.9582 152.386 30.3191 152.888C30.068 154.394 29.7528 155.767 29.5659 156.905C29.3585 158.168 29.1469 159.415 28.8128 161.173C28.5264 162.679 28.2641 163.6 28.0596 164.938C27.9587 165.584 27.4271 168.707 27.5575 171.968C27.8086 178.244 27.5575 178.997 30.5388 184.018C33.0847 187.375 36.8907 190.001 41.0475 190.844C42.2372 190.965 44.6888 191.042 45.8842 191.048C45.131 191.801 44.0706 192.336 43.3737 192.554C39.3569 193.809 34.7936 194.289 30.5388 192.132C25.9595 189.477 22.9375 186.152 21.2813 181.006C18.7708 171.968 25.8002 146.361 25.8002 143.599Z" fill="#7ACDE7"/>
<path d="M173.919 143.1C173.919 145.108 171.733 148.64 171.157 149.627C170.646 150.663 169.4 152.389 169.149 152.891C169.4 154.397 169.715 155.519 169.902 156.657C170.11 157.92 170.321 159.167 170.655 160.924C170.942 162.431 171.204 163.352 171.408 164.69C171.509 165.335 172.041 168.459 171.91 171.72C171.659 177.996 171.91 178.749 168.929 183.77C166.383 187.127 162.577 189.753 158.42 190.595C157.231 190.717 154.779 190.794 153.584 190.799C154.337 191.552 155.213 192.046 155.843 192.306C160.111 194.063 164.674 194.041 168.929 191.883C173.509 189.229 176.53 185.904 178.187 180.757C180.697 171.72 173.919 145.861 173.919 143.1Z" fill="#FB753B"/>
<ellipse cx="99.6081" cy="136.07" rx="3.76575" ry="4.0168" fill="black"/>
<path d="M75.5526 148.121H56.1757L85.5486 138.079V140.81C85.5486 141.301 85.3087 141.762 84.9061 142.044L80.5276 145.109L76.3881 147.868C76.1407 148.033 75.85 148.121 75.5526 148.121Z" fill="black"/>
<path d="M37.5994 118.248C37.5994 115.235 41.1141 114.482 42.8714 114.482H46.6371C47.4691 114.482 48.1434 113.81 48.1434 112.979V105.193C48.1434 103.185 48.1434 99.4192 51.6581 99.4192L75.3126 99.4192C75.6099 99.4192 75.8891 99.5058 76.1354 99.6725C77.9291 100.886 82.7586 104.229 84.9181 105.75C85.3158 106.03 85.5499 106.487 85.5499 106.973L85.5499 119.35C85.5499 119.612 85.481 119.875 85.351 120.102C84.6474 121.334 84.4917 121.609 83.7028 123.029C83.4468 123.489 83.4496 124.05 83.7094 124.508C84.0835 125.168 84.6769 126.22 85.36 127.446C85.4845 127.67 85.5499 127.931 85.5499 128.187L85.5499 140.288C85.5499 140.788 85.3016 141.263 84.884 141.538C77.7513 146.252 72.1972 148.123 54.4197 148.123C48.1199 148.123 48.1434 144.106 48.1434 144.106L48.1231 134.552C48.1213 133.722 47.4475 133.049 46.6168 133.049H42.8714C41.5232 133.075 37.5994 132.307 37.5994 129.294V118.248Z" fill="black"/>
<mask id="mask0_442_8088" style="mask-type:alpha" maskUnits="userSpaceOnUse" x="44" y="104" width="37" height="40">
<path d="M51.9617 128.317C49.2527 128.316 45.3024 128.314 45.1717 128.319C44.2987 128.131 44.1241 127.754 44.1241 127V120.522C44.1241 119.391 45.8701 119.399 45.8701 119.399C45.8701 119.399 49.3388 119.342 51.8875 119.311C53.3022 119.294 54.4697 118.125 54.4697 116.711V107.244C54.4697 104.281 54.6682 104.44 59.5329 104.44H74.968C75.3155 104.44 75.6523 104.56 75.9214 104.78L80.7774 108.75L80.7774 118.77C80.7774 119.17 80.6176 119.559 80.3361 119.842C78.7131 121.477 78.2545 122.018 77.0774 123.371C76.7265 123.774 76.6056 124.345 76.9292 124.771C77.5329 125.565 78.6767 126.528 80.3824 128.362C80.6376 128.637 80.7774 129 80.7774 129.375L80.7774 137.832C80.7774 138.328 80.5317 138.794 80.1234 139.075C76.9039 141.296 76.4122 141.686 74.3579 142.928C74.1242 143.069 73.8613 143.144 73.5883 143.144L60.4423 143.144L55.9758 143.144C55.1439 143.144 54.4697 142.474 54.4697 141.642V130.825C54.4697 129.44 53.3473 128.318 51.9617 128.317Z" fill="white"/>
</mask>
<g mask="url(#mask0_442_8088)">
<path d="M51.9617 119.766C49.2527 119.768 45.3024 119.769 45.1717 119.764C44.2987 119.953 44.1241 120.33 44.1241 121.084V127.059C44.1241 128.19 45.8701 128.182 45.8701 128.182C45.8701 128.182 49.3388 128.239 51.8875 128.27C53.3022 128.288 54.4697 129.456 54.4697 130.871V140.337C54.4697 142.597 54.1046 143.141 59.5329 143.141H74.2689C74.5832 143.141 74.8896 143.043 75.1453 142.86L80.4879 139.038C80.6593 138.956 80.7591 138.886 80.7774 138.831L80.7774 128.916C80.7774 128.517 80.6188 128.126 80.3317 127.848C78.6876 126.257 78.2263 126.129 76.8467 124.664C76.4774 124.271 76.3446 123.686 76.672 123.258C77.2012 122.566 78.2269 121.713 80.3718 119.432C80.6323 119.155 80.7774 118.786 80.7774 118.406L80.7774 109.749C80.7774 109.253 80.5317 108.788 80.1234 108.506C76.9039 106.286 76.4122 105.895 74.3579 104.653C74.1242 104.512 73.8613 104.437 73.5883 104.437L60.4423 104.437L55.9757 104.437C55.1438 104.437 54.4697 105.108 54.4697 105.94V117.257C54.4697 118.642 53.3473 119.765 51.9617 119.766Z" fill="white"/>
</g>
<path d="M65.4118 111.468C65.806 111.472 66.2001 111.476 66.6063 111.48C67.1975 111.474 67.1975 111.474 67.8007 111.468C70.7469 111.478 72.0352 111.468 72.0352 113.99C72.0352 115.12 72.0293 113.863 72.0352 115.34C72.0478 116.069 72.0352 117.138 72.0352 117.882C72.0352 119.388 71.6923 119.801 68.8657 119.801C66.8573 119.801 68.1173 119.836 66.3238 119.796C65.7719 119.798 65.7719 119.798 65.2088 119.801C62.4726 119.773 61.2008 119.639 61.2009 117.882C61.2009 116.626 61.193 118.007 61.2009 116.375C61.1983 115.837 61.2035 114.545 61.2008 113.99C61.2087 111.221 63.0146 111.476 65.4118 111.468Z" fill="black"/>
<path d="M65.4118 128.541C65.806 128.545 66.2001 128.549 66.6063 128.553C67.1975 128.547 67.1975 128.547 67.8007 128.541C70.7469 128.551 72.0352 128.541 72.0352 131.064C72.0352 132.193 72.0293 130.936 72.0352 132.413C72.0478 133.142 72.0352 134.211 72.0352 134.955C72.0352 136.461 71.6923 136.874 68.8657 136.874C66.8573 136.874 68.1173 136.909 66.3238 136.869C65.7719 136.871 65.7719 136.871 65.2088 136.874C62.4726 136.846 61.2008 136.712 61.2009 134.955C61.2009 133.7 61.193 135.08 61.2009 133.449C61.1983 132.91 61.2035 131.618 61.2008 131.064C61.2087 128.295 63.0146 128.549 65.4118 128.541Z" fill="black"/>
<path d="M124.416 148.121H143.793L114.42 138.079V140.81C114.42 141.301 114.66 141.762 115.063 142.044L119.441 145.109L123.581 147.868C123.828 148.033 124.119 148.121 124.416 148.121Z" fill="black"/>
<path d="M162.371 118.248C162.371 115.235 158.856 114.482 157.099 114.482H153.333C152.501 114.482 151.826 113.81 151.826 112.979V105.193C151.826 103.185 151.826 99.4192 148.312 99.4192L124.657 99.4192C124.36 99.4192 124.081 99.5058 123.835 99.6725C122.041 100.886 117.211 104.229 115.052 105.75C114.654 106.03 114.42 106.487 114.42 106.973L114.42 119.35C114.42 119.612 114.489 119.875 114.619 120.102C115.323 121.334 115.478 121.609 116.267 123.029C116.523 123.489 116.52 124.05 116.261 124.508C115.886 125.168 115.293 126.22 114.61 127.446C114.485 127.67 114.42 127.931 114.42 128.187L114.42 140.288C114.42 140.788 114.668 141.263 115.086 141.538C122.219 146.252 127.773 148.123 145.55 148.123C151.85 148.123 151.826 144.106 151.826 144.106L151.847 134.552C151.849 133.722 152.522 133.049 153.353 133.049H157.099C158.447 133.075 162.371 132.307 162.371 129.294V118.248Z" fill="black"/>
<mask id="mask1_442_8088" style="mask-type:alpha" maskUnits="userSpaceOnUse" x="119" y="104" width="37" height="40">
<path d="M148.004 128.318C150.713 128.316 154.663 128.315 154.794 128.32C155.667 128.132 155.841 127.755 155.841 127.001V120.523C155.841 119.392 154.095 119.4 154.095 119.4C154.095 119.4 150.626 119.343 148.078 119.312C146.663 119.295 145.496 118.126 145.496 116.711V107.245C145.496 104.282 145.297 104.441 140.432 104.441H124.997C124.65 104.441 124.313 104.561 124.044 104.781L119.188 108.751L119.188 118.771C119.188 119.171 119.348 119.559 119.629 119.843C121.252 121.478 121.711 122.019 122.888 123.372C123.239 123.775 123.36 124.346 123.036 124.772C122.432 125.566 121.288 126.529 119.583 128.363C119.328 128.637 119.188 129.001 119.188 129.376L119.188 137.833C119.188 138.329 119.434 138.795 119.842 139.076C123.061 141.296 123.553 141.687 125.607 142.929C125.841 143.07 126.104 143.145 126.377 143.145L139.523 143.145L143.989 143.145C144.821 143.145 145.496 142.475 145.496 141.643V130.826C145.496 129.44 146.618 128.319 148.004 128.318Z" fill="white"/>
</mask>
<g mask="url(#mask1_442_8088)">
<path d="M148.004 119.768C150.713 119.77 154.663 119.771 154.794 119.766C155.667 119.954 155.841 120.331 155.841 121.085V127.061C155.841 128.192 154.095 128.184 154.095 128.184C154.095 128.184 150.626 128.241 148.078 128.272C146.663 128.289 145.496 129.458 145.496 130.872V140.339C145.496 142.599 145.861 143.143 140.432 143.143H125.696C125.382 143.143 125.076 143.045 124.82 142.862L119.477 139.04C119.306 138.958 119.206 138.888 119.188 138.833L119.188 128.918C119.188 128.518 119.346 128.128 119.634 127.85C121.278 126.259 121.739 126.131 123.119 124.665C123.488 124.273 123.621 123.688 123.293 123.26C122.764 122.568 121.738 121.715 119.593 119.434C119.333 119.157 119.188 118.788 119.188 118.408L119.188 109.751C119.188 109.255 119.434 108.789 119.842 108.508C123.061 106.287 123.553 105.897 125.607 104.655C125.841 104.514 126.104 104.439 126.377 104.439L139.523 104.439L143.989 104.439C144.821 104.439 145.496 105.109 145.496 105.941V117.258C145.496 118.644 146.618 119.767 148.004 119.768Z" fill="white"/>
</g>
<path d="M134.557 111.468C134.162 111.472 133.768 111.476 133.362 111.48C132.771 111.474 132.771 111.474 132.168 111.468C129.222 111.478 127.933 111.468 127.933 113.99C127.933 115.12 127.939 113.863 127.933 115.34C127.921 116.069 127.933 117.138 127.933 117.882C127.933 119.388 128.276 119.801 131.103 119.801C133.111 119.801 131.851 119.836 133.645 119.796C134.197 119.798 134.197 119.798 134.76 119.801C137.496 119.773 138.768 119.639 138.768 117.882C138.768 116.626 138.775 118.007 138.768 116.375C138.77 115.837 138.765 114.545 138.768 113.99C138.76 111.221 136.954 111.476 134.557 111.468Z" fill="black"/>
<path d="M134.557 128.541C134.162 128.545 133.768 128.549 133.362 128.553C132.771 128.547 132.771 128.547 132.168 128.541C129.222 128.551 127.933 128.541 127.933 131.064C127.933 132.193 127.939 130.936 127.933 132.413C127.921 133.142 127.933 134.211 127.933 134.955C127.933 136.461 128.276 136.874 131.103 136.874C133.111 136.874 131.851 136.909 133.645 136.869C134.197 136.871 134.197 136.871 134.76 136.874C137.496 136.846 138.768 136.712 138.768 134.955C138.768 133.7 138.775 135.08 138.768 133.449C138.77 132.91 138.765 131.618 138.768 131.064C138.76 128.295 136.954 128.549 134.557 128.541Z" fill="black"/>
</svg>
